<svg width="138" height="32" viewBox="0 0 138 32" fill="none" xmlns="http://www.w3.org/2000/svg">
    <path d="M7.52813 25.24C6.36013 25.24 5.34413 25.024 4.48013 24.592C3.61613 24.144 2.94413 23.528 2.46413 22.744C2.00013 21.944 1.76813 21.016 1.76813 19.96V12.52C1.76813 11.464 2.00013 10.544 2.46413 9.76C2.94413 8.96 3.61613 8.344 4.48013 7.912C5.34413 7.464 6.36013 7.24 7.52813 7.24C8.71213 7.24 9.72813 7.464 10.5761 7.912C11.4401 8.344 12.1041 8.96 12.5681 9.76C13.0481 10.544 13.2881 11.464 13.2881 12.52V19.96C13.2881 21.016 13.0481 21.944 12.5681 22.744C12.1041 23.528 11.4401 24.144 10.5761 24.592C9.72813 25.024 8.71213 25.24 7.52813 25.24ZM7.52813 22.12C8.24813 22.12 8.78413 21.936 9.13613 21.568C9.50413 21.184 9.68813 20.648 9.68813 19.96V12.52C9.68813 11.816 9.51213 11.28 9.16013 10.912C8.80813 10.544 8.26413 10.36 7.52813 10.36C6.79213 10.36 6.24813 10.544 5.89613 10.912C5.54413 11.28 5.36813 11.816 5.36813 12.52V19.96C5.36813 20.648 5.54413 21.184 5.89613 21.568C6.26413 21.936 6.80813 22.12 7.52813 22.12ZM16.3027 25V11.8H19.7828V14.32H20.8388L19.7828 15.16C19.7828 14.04 20.1028 13.16 20.7428 12.52C21.3828 11.88 22.2468 11.56 23.3348 11.56C24.6148 11.56 25.6388 12.008 26.4068 12.904C27.1908 13.8 27.5828 14.992 27.5828 16.48V25H23.9828V16.84C23.9828 16.152 23.7988 15.624 23.4308 15.256C23.0788 14.872 22.5748 14.68 21.9188 14.68C21.2788 14.68 20.7828 14.872 20.4308 15.256C20.0788 15.624 19.9028 16.152 19.9028 16.84V25H16.3027ZM38.4694 25C37.5414 25 36.7254 24.808 36.0214 24.424C35.3174 24.024 34.7654 23.472 34.3654 22.768C33.9814 22.064 33.7894 21.248 33.7894 20.32V10.72H29.7094V7.48H37.3894V20.32C37.3894 20.752 37.5174 21.104 37.7734 21.376C38.0454 21.632 38.3974 21.76 38.8294 21.76H42.6694V25H38.4694ZM45.18 25V21.736H49.74V15.04H45.78V11.8H53.1V21.736H56.94V25H45.18ZM51.18 9.712C50.524 9.712 49.996 9.544 49.596 9.208C49.212 8.872 49.02 8.416 49.02 7.84C49.02 7.264 49.212 6.808 49.596 6.472C49.996 6.136 50.524 5.968 51.18 5.968C51.836 5.968 52.356 6.136 52.74 6.472C53.14 6.808 53.34 7.264 53.34 7.84C53.34 8.416 53.14 8.872 52.74 9.208C52.356 9.544 51.836 9.712 51.18 9.712ZM59.4746 25V11.8H62.9546V14.32H64.0106L62.9546 15.16C62.9546 14.04 63.2746 13.16 63.9146 12.52C64.5546 11.88 65.4186 11.56 66.5066 11.56C67.7866 11.56 68.8106 12.008 69.5786 12.904C70.3626 13.8 70.7546 14.992 70.7546 16.48V25H67.1546V16.84C67.1546 16.152 66.9706 15.624 66.6026 15.256C66.2506 14.872 65.7466 14.68 65.0906 14.68C64.4506 14.68 63.9546 14.872 63.6026 15.256C63.2506 15.624 63.0746 16.152 63.0746 16.84V25H59.4746ZM79.5053 25.24C78.3373 25.24 77.3133 25.024 76.4333 24.592C75.5693 24.144 74.8973 23.528 74.4173 22.744C73.9533 21.944 73.7213 21.016 73.7213 19.96V16.84C73.7213 15.784 73.9533 14.864 74.4173 14.08C74.8973 13.28 75.5693 12.664 76.4333 12.232C77.3133 11.784 78.3373 11.56 79.5053 11.56C80.6733 11.56 81.6813 11.784 82.5293 12.232C83.3933 12.664 84.0573 13.28 84.5213 14.08C85.0013 14.864 85.2413 15.784 85.2413 16.84V19.24H77.1533V19.96C77.1533 20.792 77.3533 21.424 77.7533 21.856C78.1533 22.272 78.7533 22.48 79.5533 22.48C80.1133 22.48 80.5613 22.384 80.8973 22.192C81.2493 22 81.4813 21.736 81.5933 21.4H85.1213C84.8333 22.552 84.1773 23.48 83.1533 24.184C82.1453 24.888 80.9293 25.24 79.5053 25.24ZM81.8093 17.392V16.792C81.8093 15.976 81.6173 15.352 81.2333 14.92C80.8653 14.488 80.2893 14.272 79.5053 14.272C78.7213 14.272 78.1293 14.496 77.7293 14.944C77.3453 15.392 77.1533 16.024 77.1533 16.84V17.2L82.0493 17.152L81.8093 17.392Z" fill="currentColor" />
    <path d="M109.709 25L114.005 7.48H118.565L122.909 25H119.237L118.397 21.04H114.221L113.381 25H109.709ZM114.821 18.16H117.773L116.933 13.936C116.821 13.328 116.701 12.728 116.573 12.136C116.461 11.528 116.373 11.056 116.309 10.72C116.245 11.056 116.157 11.52 116.045 12.112C115.949 12.704 115.837 13.304 115.709 13.912L114.821 18.16ZM125.372 25L123.74 7.48H126.692L127.58 19.192C127.596 19.416 127.612 19.736 127.628 20.152C127.644 20.552 127.66 20.976 127.676 21.424C127.708 21.856 127.724 22.248 127.724 22.6C127.756 22.248 127.788 21.856 127.82 21.424C127.868 20.976 127.916 20.552 127.964 20.152C128.012 19.736 128.044 19.416 128.06 19.192L129.356 7.48H132.092L133.34 19.192C133.372 19.416 133.404 19.736 133.436 20.152C133.484 20.552 133.532 20.976 133.58 21.424C133.644 21.856 133.692 22.248 133.724 22.6C133.74 22.248 133.756 21.856 133.772 21.424C133.788 20.976 133.804 20.552 133.82 20.152C133.836 19.736 133.852 19.416 133.868 19.192L134.684 7.48H137.66L135.908 25H132.164L130.988 13.36C130.956 13.088 130.924 12.736 130.892 12.304C130.86 11.856 130.828 11.392 130.796 10.912C130.764 10.432 130.732 10.008 130.7 9.64C130.684 10.008 130.66 10.432 130.628 10.912C130.596 11.392 130.564 11.856 130.532 12.304C130.5 12.736 130.468 13.088 130.436 13.36L129.14 25H125.372Z" fill="currentColor"/>
    <path d="M108.174 15.2567L101.003 8.80248C100.231 8.10748 99 8.65551 99 9.69443V22.3056C99 23.3445 100.231 23.8925 101.003 23.1975L108.174 16.7433C108.615 16.3461 108.615 15.6539 108.174 15.2567Z" stroke="currentColor" stroke-width="3" stroke-linecap="round" stroke-linejoin="round"/>
</svg>
