<svg width="100" height="100" viewBox="0 0 100 100" fill="none" xmlns="http://www.w3.org/2000/svg">
    <path d="M46.8571 70V42C46.8571 40.3431 45.514 39 43.8571 39H42C40.3431 39 39 40.3431 39 42V50.0909C39 51.7478 40.3431 53.0909 42 53.0909H58C59.6569 53.0909 61 51.7478 61 50.0909V42C61 40.3431 59.6569 39 58 39H56.1429C54.486 39 53.1429 40.3431 53.1429 42V70" stroke="currentColor" stroke-linecap="round" stroke-width="2" />
    <path d="M48.2111 86.6056L48.4348 86.1583H48.4348L48.2111 86.6056ZM51.7889 86.6056L51.5652 86.1583H51.5652L51.7889 86.6056ZM57.2278 83.8861L57.0042 83.4389L57.2278 83.8861ZM58.184 83.241L58.6093 83.5039L58.184 83.241ZM36.8382 62.9255L36.5746 63.3504L36.8382 62.9255ZM37.5653 63.688L37.1239 63.9229L37.5653 63.688ZM37.2919 63.2475L36.9268 63.5892L37.2919 63.2475ZM42.7722 83.8861L42.5486 84.3333L42.7722 83.8861ZM41.816 83.241L42.2413 82.9781L41.816 83.241ZM63.1618 62.9255L63.4254 63.3504L63.1618 62.9255ZM62.4347 63.688L62.8761 63.9229L62.4347 63.688ZM62.7081 63.2475L63.0732 63.5892L62.7081 63.2475ZM74.5 41.6667C74.5 50.4642 69.8634 58.1792 62.8982 62.5007L63.4254 63.3504C70.6723 58.8542 75.5 50.8244 75.5 41.6667H74.5ZM50 17.1667C63.531 17.1667 74.5 28.1357 74.5 41.6667H75.5C75.5 27.5834 64.0833 16.1667 50 16.1667V17.1667ZM25.5 41.6667C25.5 28.1357 36.469 17.1667 50 17.1667V16.1667C35.9167 16.1667 24.5 27.5834 24.5 41.6667H25.5ZM37.1018 62.5007C30.1366 58.1792 25.5 50.4642 25.5 41.6667H24.5C24.5 50.8244 29.3277 58.8542 36.5746 63.3504L37.1018 62.5007ZM42.1667 80.1281C42.1667 74.3076 40.7356 68.582 38.0067 63.4531L37.1239 63.9229C39.7759 68.9072 41.1667 74.4715 41.1667 80.1281H42.1667ZM42.1667 82.0973V80.1281H41.1667V82.0973H42.1667ZM48.4348 86.1583L42.9958 83.4389L42.5486 84.3333L47.9875 87.0528L48.4348 86.1583ZM51.5652 86.1583C50.5799 86.651 49.4201 86.651 48.4348 86.1583L47.9875 87.0528C49.2544 87.6862 50.7456 87.6862 52.0125 87.0528L51.5652 86.1583ZM57.0042 83.4389L51.5652 86.1583L52.0125 87.0528L57.4514 84.3333L57.0042 83.4389ZM57.8333 80.1281V82.0973H58.8333V80.1281H57.8333ZM61.9933 63.4531C59.2644 68.582 57.8333 74.3076 57.8333 80.1281H58.8333C58.8333 74.4715 60.2241 68.9072 62.8761 63.9229L61.9933 63.4531ZM57.4514 84.3333C57.7111 84.2034 57.94 84.0897 58.12 83.9752C58.3097 83.8544 58.481 83.7115 58.6093 83.5039L57.7587 82.9781C57.7376 83.0122 57.6997 83.0573 57.5832 83.1315C57.4568 83.2119 57.2823 83.2998 57.0042 83.4389L57.4514 84.3333ZM57.8333 82.0973C57.8333 82.4082 57.8327 82.6037 57.8173 82.7526C57.8031 82.8901 57.7797 82.9441 57.7587 82.9781L58.6093 83.5039C58.7376 83.2963 58.7889 83.0792 58.812 82.8555C58.834 82.6433 58.8333 82.3877 58.8333 82.0973H57.8333ZM36.5746 63.3504C36.841 63.5157 36.8924 63.5524 36.9268 63.5892L37.657 62.9059C37.5105 62.7493 37.3197 62.6358 37.1018 62.5007L36.5746 63.3504ZM38.0067 63.4531C37.8962 63.2455 37.8028 63.0617 37.657 62.9059L36.9268 63.5892C36.9619 63.6267 36.9905 63.6722 37.1239 63.9229L38.0067 63.4531ZM41.1667 82.0973C41.1667 82.3877 41.166 82.6433 41.188 82.8555C41.2111 83.0792 41.2624 83.2963 41.3907 83.5039L42.2413 82.9781C42.2203 82.9441 42.1969 82.8901 42.1827 82.7526C42.1673 82.6037 42.1667 82.4082 42.1667 82.0973H41.1667ZM42.9958 83.4389C42.7177 83.2998 42.5432 83.2119 42.4168 83.1315C42.3003 83.0573 42.2624 83.0122 42.2413 82.9781L41.3907 83.5039C41.519 83.7115 41.6903 83.8544 41.88 83.9752C42.06 84.0897 42.2889 84.2034 42.5486 84.3333L42.9958 83.4389ZM62.8982 62.5007C62.6803 62.6358 62.4895 62.7493 62.343 62.9059L63.0732 63.5892C63.1076 63.5524 63.159 63.5157 63.4254 63.3504L62.8982 62.5007ZM62.8761 63.9229C63.0095 63.6722 63.0381 63.6267 63.0732 63.5892L62.343 62.9059C62.1972 63.0617 62.1038 63.2455 61.9933 63.4531L62.8761 63.9229Z" fill="rgb(22, 25, 30)" stroke-width="2" />
    <path d="M60.4166 68.75V68.75C59.6685 69.0493 59.2944 69.1989 58.9285 69.3327C53.1628 71.4408 46.8372 71.4408 41.0715 69.3327C40.7056 69.1989 40.3315 69.0493 39.5833 68.75V68.75" stroke="rgb(22, 25, 30)" stroke-width="2" />
</svg>
